/* XPM */
static char * full_xpm[] = {
"14 14 2 1",
" 	c None",
".	c #DCDCCC",
"              ",
"              ",
"              ",
".........     ",
"..     ..     ",
".. ......     ",
".. ......     ",
"..     ..     ",
".. ......     ",
".. ......     ",
".. ......     ",
".........     ",
"              ",
"              "};
