#define full_width 14
#define full_height 14
static unsigned char full_bits[] = {
   0xff, 0x3f, 0x01, 0x20, 0xff, 0x2f, 0x00, 0x28, 0x00, 0x28, 0x00, 0x2a,
   0x00, 0x2a, 0x00, 0x2a, 0x00, 0x2a, 0x00, 0x2a, 0x00, 0x28, 0x00, 0x28,
   0xff, 0x2f, 0xff, 0x3f };
