#define mtall_width 14
#define mtall_height 14
static char mtall_bits[] = {
  0xFF, 0x3F, 0xFF, 0x2F, 0x03, 0x28, 0x00, 0x28, 0x00, 0x28, 0x00, 0x28, 
  0x00, 0x28, 0x13, 0x29, 0x00, 0x28, 0x00, 0x28, 0x00, 0x28, 0x00, 0x28, 
  0x01, 0x20, 0xFF, 0x3F, };
