/* XPM */
static char * mtall_xpm[] = {
"14 14 2 1",
" 	c None",
".	c #DCDCCC",
"              ",
"              ",
"              ",
".........     ",
".........     ",
".........     ",
".........     ",
"              ",
".. ... ..     ",
".. ... ..     ",
".. ... ..     ",
".. ... ..     ",
"              ",
"              "};
