#define tall_width 14
#define tall_height 14
static char tall_bits[] = {
  0xFF, 0x3F, 0x01, 0x20, 0xFF, 0x2F, 0x00, 0x28, 0x00, 0x28, 0xC0, 0x2F, 
  0x00, 0x28, 0x00, 0x28, 0x00, 0x28, 0xC0, 0x2F, 0x00, 0x28, 0x00, 0x28, 
  0xFF, 0x2F, 0xFF, 0x3F, };
